<svg width="50" height="49" xmlns="http://www.w3.org/2000/svg"><defs><linearGradient x1="2%" y1="18.67%" y2="77.86%" id="a"><stop stop-color="#2CD8D5" offset="0%"/><stop stop-color="#C5C1FF" offset="47.52%"/><stop stop-color="#FFBAC3" offset="100%"/></linearGradient></defs><path d="M30.14 0L28.8 5.85c.55.12 1.1.28 1.63.45L32.29.6a24.9 24.9 0 0 0-2.15-.6zm-15.3 1.36l2.36 5.52c.52-.22 1.05-.42 1.58-.6L16.93.59c-.7.23-1.4.49-2.08.78zm-7.1 22.87c0 9.3 7.55 16.85 16.85 16.85 9.29 0 16.85-7.56 16.85-16.85 0-9.3-7.56-16.85-16.85-16.85-9.3 0-16.85 7.56-16.85 16.85zm2 0c0-8.19 6.66-14.85 14.85-14.85s14.85 6.66 14.85 14.85-6.66 14.85-14.85 14.85A14.87 14.87 0 0 1 9.73 24.23zm29.05-12.4c.37.43.73.87 1.06 1.33l4.85-3.53c-.43-.6-.9-1.18-1.39-1.74l-4.52 3.94zm-35.52-.38l5.15 3.08c.29-.48.6-.95.93-1.4L4.5 9.59c-.43.6-.85 1.22-1.23 1.86zM13.6 24.23a11.83 11.83 0 0 0 22 0 11.83 11.83 0 0 0-22 0zm2.18 0a9.77 9.77 0 0 1 8.82-5.5 9.77 9.77 0 0 1 8.82 5.5 9.76 9.76 0 0 1-8.82 5.5 9.76 9.76 0 0 1-8.82-5.5zm4.32 0a4.5 4.5 0 0 0 9 0 4.5 4.5 0 0 0-9 0zm2 0a2.5 2.5 0 0 1 5 0 2.5 2.5 0 0 1-5 0zm21.1-1.69c.06.56-.09 1.13-.09 1.69v.09l6.13-.09c0-.51.05-1.03.05-1.54v-.21c0-.16 0-.32-.02-.48l-6.06.54zM2.83 24.23h2.91H.1v.1c0 .7-.15 1.39-.09 2.07l5.89-.51c-.05-.55-.17-1.1-.17-1.65v-.2l-2.91.19zM39.8 35.36l4.84 3.55a25 25 0 0 0 1.24-1.86l-5.14-3.1c-.3.49-.6.96-.94 1.41zM4.45 38.8c.43.6.9 1.18 1.38 1.74l4.53-3.93c-.37-.43-.73-.87-1.05-1.33L4.43 38.8zm25.91 3.4l1.83 5.7c.71-.22 1.41-.48 2.1-.77l-2.35-5.53c-.51.22-1.05.42-1.58.6zm-13.52 5.66c.7.23 1.43.43 2.15.6l1.34-5.85c-.54-.12-1.09-.28-1.62-.45l-1.87 5.7z" fill="url(#a)" fill-rule="evenodd"/></svg>