<?xml version="1.0" standalone="no"?>
<!DOCTYPE svg PUBLIC "-//W3C//DTD SVG 20010904//EN"
 "http://www.w3.org/TR/2001/REC-SVG-20010904/DTD/svg10.dtd">
<svg version="1.0" xmlns="http://www.w3.org/2000/svg"
 width="700.000000pt" height="700.000000pt" viewBox="0 0 700.000000 700.000000"
 preserveAspectRatio="xMidYMid meet">
<metadata>
Created by potrace 1.11, written by Peter Selinger 2001-2013
</metadata>
<g transform="translate(0.000000,700.000000) scale(0.100000,-0.100000)"
fill="#000000" stroke="none">
<path d="M4070 5471 c0 -4 -38 -86 -84 -182 -46 -96 -127 -266 -181 -379 -94
-198 -124 -261 -270 -565 -37 -77 -85 -178 -107 -225 -22 -47 -66 -139 -98
-205 -32 -66 -79 -165 -105 -220 -26 -55 -72 -152 -103 -215 -55 -116 -118
-247 -210 -440 -27 -58 -78 -163 -112 -235 -34 -71 -85 -177 -112 -235 -84
-176 -133 -279 -203 -425 -37 -77 -82 -171 -100 -210 -18 -38 -60 -128 -94
-199 -34 -70 -60 -131 -57 -134 3 -3 44 -22 90 -43 61 -27 87 -34 95 -26 6 6
11 14 11 18 0 3 41 91 91 195 50 104 104 216 119 249 15 33 63 132 105 220 43
88 92 192 110 230 18 39 69 146 114 238 44 93 81 170 81 172 0 1 42 90 94 196
51 107 111 232 133 279 68 143 161 337 239 498 41 84 74 155 74 157 0 2 45 96
100 210 55 114 100 208 100 210 0 1 40 85 89 186 48 101 107 225 131 274 23
50 74 155 112 235 102 211 138 288 138 294 0 5 -27 18 -134 65 -55 24 -56 24
-56 12z"/>
<path d="M4832 4438 c-9 -3 -93 -82 -185 -175 l-168 -169 0 -185 c0 -101 0
-208 1 -236 l0 -53 423 0 422 0 0 322 0 323 213 2 212 2 1 -32 c3 -159 0 -929
-4 -933 -2 -3 -234 -5 -514 -5 l-510 0 -169 -169 -169 -170 0 -305 c0 -201 3
-305 10 -305 6 0 84 -74 175 -165 l165 -165 442 0 442 0 121 121 121 121 120
-121 120 -121 450 0 449 0 0 80 0 80 -155 0 -155 0 0 963 0 963 -166 167 c-91
92 -174 167 -183 168 -102 5 -1497 2 -1509 -3z m919 -1318 c0 -8 1 -172 1
-364 l0 -349 -119 -119 -119 -119 -75 0 c-41 0 -81 0 -89 0 -13 1 -15 59 -13
469 1 257 2 474 2 482 1 13 29 15 206 16 177 0 205 -2 206 -16z"/>
<path d="M0 4350 l0 -80 28 -1 c15 0 87 0 160 -1 128 0 132 0 133 -21 0 -12 0
-436 1 -943 l0 -921 187 -188 186 -188 435 -1 435 -1 3 82 3 81 -161 -1 -160
-2 -1 35 c-1 43 0 1773 0 1781 1 3 64 69 141 146 l141 141 173 0 173 0 89 -99
c49 -55 103 -116 120 -135 l31 -36 68 66 67 66 -48 53 c-57 61 -155 165 -202
213 l-34 34 -266 0 -267 0 -141 -141 -142 -142 -141 142 -140 141 -435 0 -436
0 0 -80z"/>
</g>
</svg>
