<?xml version="1.0" standalone="no"?>
<!DOCTYPE svg PUBLIC "-//W3C//DTD SVG 20010904//EN"
 "http://www.w3.org/TR/2001/REC-SVG-20010904/DTD/svg10.dtd">
<svg version="1.0" xmlns="http://www.w3.org/2000/svg"
 width="337.000000pt" height="337.000000pt" viewBox="0 0 337.000000 337.000000"
 preserveAspectRatio="xMidYMid meet">
<metadata>
Created by potrace 1.11, written by Peter Selinger 2001-2013
</metadata>
<g transform="translate(0.000000,337.000000) scale(0.100000,-0.100000)"
fill="#000000" stroke="none">
<path d="M2040 3233 c-12 -54 -30 -134 -41 -178 -31 -130 -31 -124 -1 -131 15
-3 40 -10 56 -15 16 -5 30 -8 32 -7 5 7 125 390 122 392 -6 5 -124 36 -135 36
-6 0 -21 -44 -33 -97z"/>
<path d="M1085 3269 c-27 -11 -53 -24 -57 -28 -6 -5 78 -218 138 -348 l14 -32
45 19 c25 11 49 21 53 22 11 4 9 10 -53 206 -44 135 -63 182 -74 181 -9 0 -38
-9 -66 -20z"/>
<path d="M1497 2815 c-156 -27 -307 -85 -437 -169 -81 -53 -77 -49 -169 -136
-403 -381 -473 -1004 -166 -1465 411 -619 1284 -697 1793 -161 171 180 281
409 309 641 13 109 7 292 -12 375 -3 14 -7 36 -10 50 -9 47 -47 155 -81 225
-111 233 -321 441 -557 550 -84 39 -221 80 -312 94 -89 13 -269 11 -358 -4z
m430 -154 c333 -87 589 -318 709 -640 31 -84 37 -107 54 -221 19 -135 -3 -322
-56 -471 -83 -230 -270 -441 -490 -552 -290 -146 -610 -148 -899 -7 -627 307
-766 1127 -275 1620 137 138 302 231 485 273 104 24 109 25 255 22 100 -2 156
-8 217 -24z"/>
<path d="M1515 2174 c-241 -53 -457 -224 -558 -442 -27 -57 -25 -73 16 -145
123 -219 340 -372 580 -410 353 -57 692 115 852 430 l36 73 -31 62 c-105 206
-285 356 -502 419 -98 28 -295 35 -393 13z m245 -128 c83 -10 115 -18 186 -48
125 -52 260 -171 320 -283 19 -35 19 -35 -6 -83 -13 -26 -60 -83 -105 -128
-160 -161 -369 -228 -583 -188 -146 27 -251 80 -354 180 -51 49 -128 157 -128
180 0 20 39 84 89 143 55 65 144 133 226 171 85 39 233 72 290 63 11 -1 40 -5
65 -7z"/>
<path d="M1605 1976 c-76 -24 -121 -55 -168 -117 -89 -118 -75 -296 34 -401
113 -109 297 -115 417 -13 130 112 138 325 17 449 -75 76 -205 111 -300 82z
m176 -161 c95 -62 93 -208 -2 -276 -88 -62 -228 -10 -255 95 -12 51 -11 70 12
117 47 95 155 124 245 64z"/>
<path d="M2808 2662 c-81 -70 -147 -131 -147 -135 -1 -5 14 -28 33 -52 l33
-44 159 116 c87 63 162 118 167 122 11 11 -74 121 -93 121 -3 0 -71 -58 -152
-128z"/>
<path d="M277 2627 c-18 -28 -37 -57 -41 -64 -6 -11 34 -42 99 -77 11 -6 71
-42 133 -80 126 -76 116 -76 157 1 18 33 18 34 -1 47 -10 8 -59 44 -109 80
-49 37 -115 84 -147 106 l-56 40 -35 -53z"/>
<path d="M3287 1824 c-1 -1 -42 -4 -92 -8 -171 -13 -220 -19 -231 -27 -6 -5
-12 -33 -13 -63 l-1 -55 182 3 c101 2 195 4 211 5 27 1 27 1 27 76 l0 76 -40
-3 c-22 -1 -42 -3 -43 -4z"/>
<path d="M367 1693 c-3 -3 -84 -7 -179 -10 -95 -3 -175 -7 -176 -8 -2 -2 -6
-35 -7 -74 l-4 -71 87 6 c48 4 98 8 112 9 14 1 67 6 117 10 l93 8 -4 31 c-2
17 -4 45 -5 62 -1 29 -21 51 -34 37z"/>
<path d="M2753 963 l-31 -46 162 -119 c88 -65 165 -118 171 -118 10 1 89 120
83 125 -11 10 -341 205 -347 205 -4 0 -21 -21 -38 -47z"/>
<path d="M472 806 c-84 -62 -155 -116 -159 -119 -7 -8 77 -113 92 -114 9 -1
145 112 229 190 17 16 41 36 54 44 12 8 22 20 22 25 0 15 -62 88 -74 87 -6 0
-80 -51 -164 -113z"/>
<path d="M2136 475 c-21 -7 -42 -17 -47 -22 -5 -5 15 -82 46 -178 30 -94 55
-174 55 -180 1 -34 17 -36 88 -10 l70 27 -13 36 c-34 94 -142 336 -151 338 -5
2 -26 -3 -48 -11z"/>
<path d="M1220 264 c-35 -106 -62 -196 -58 -199 3 -3 35 -14 72 -25 l67 -19 9
25 c6 14 10 31 10 39 0 7 16 79 35 159 19 81 35 155 35 165 0 13 -14 22 -53
33 l-54 14 -63 -192z"/>
</g>
</svg>
